<?xml version="1.0" encoding="UTF-8"?>

<svg id="Calque_1" xmlns="http://www.w3.org/2000/svg" version="1.1" viewBox="0 0 255 255">

  <!-- Generator: Adobe Illustrator 29.2.1, SVG Export Plug-In . SVG Version: 2.1.0 Build 116)  -->
  <defs>
    <style>
      .st0 {
        fill: #f7f6f2;
      }

      .st0, .st1, .st2, .st3, .st4 {
        stroke-miterlimit: 10;
      }

      .st0, .st1, .st2, .st4 {
        stroke: #1d1d1b;
      }

      .st5 {
        isolation: isolate;
      }

      .st1 {
        display: none;
        fill: #fff;
      }

      .st2, .st6 {
        fill: #b8ddd1;
      }

      .st3 {
        fill: none;
        stroke: #000;
      }

      .st4 {
        fill: #f7b186;
      }

      .st7 {
        fill: #333;
      }
    </style>
  </defs>
  <rect class="st1" x="-7.9" y="-678.2" width="300.8" height="300.8"/>
  <path class="st1" d="M-53.5-478.4"/>
  <path class="st1" d="M-22.5-478.4"/>
  <path class="st2" d="M42.9,161.3c14.2-10.4,81.9-12.7,93.9,4.6,50.8,73.6-152.3,49.5-93.9-4.6h0Z"/>
  <path class="st4" d="M128.3,122.5c-16-18-55-22.1-75.2-8.4-18.9,12.6-6.2,37.2,13.4,35.3,15-1.5,27.2,2.6,49.7-.5,14.1-2,23.2-14.4,12.2-26.2h-.1v-.2Z"/>
  <path class="st0" d="M108.6,87c8.6,15.9-5.1,17.4-24.1,15-24.3-3-30.9-15-23.4-23.6,10.5-12,25.9-19.9,47.4,8.5h0Z"/>
  <g class="st5">
    <g class="st5">
      <g class="st5">
        <g class="st5">
          <path class="st7" d="M141.6,149.7v-17.2h2.3l9,13.5v-13.5h2.2v17.2h-2.3l-9-13.5v13.5h-2.2Z"/>
          <path class="st7" d="M166.9,149.7v-1.8c-1,1.4-2.3,2.1-3.9,2.1s-1.4-.1-2.1-.4-1.1-.6-1.4-1.1-.5-.9-.7-1.6c0-.4-.1-1.1-.1-2v-7.7h2.1v6.9c0,1.1,0,1.8.1,2.2.1.6.4,1,.8,1.3s1,.5,1.6.5,1.2-.2,1.8-.5.9-.8,1.2-1.3.3-1.4.3-2.4v-6.7h2.1v12.4h-1.9Z"/>
          <path class="st7" d="M176.7,147.8l.3,1.9c-.6.1-1.1.2-1.6.2-.8,0-1.4-.1-1.8-.4s-.7-.6-.9-1-.3-1.2-.3-2.5v-7.2h-1.5v-1.6h1.5v-3.1l2.1-1.3v4.3h2.1v1.6h-2.1v7.3c0,.6,0,1,.1,1.2s.2.3.4.4.4.2.7.2.5,0,.9,0Z"/>
          <path class="st7" d="M178.7,149.7v-12.4h1.9v1.9c.5-.9.9-1.5,1.3-1.7s.9-.4,1.4-.4c.7,0,1.4.2,2.2.7l-.7,2c-.5-.3-1-.5-1.5-.5s-.9.1-1.2.4-.6.7-.8,1.2c-.2.8-.4,1.6-.4,2.5v6.5h-2.1Z"/>
          <path class="st7" d="M186.7,134.9v-2.4h2.1v2.4h-2.1ZM186.7,149.7v-12.4h2.1v12.4h-2.1Z"/>
        </g>
      </g>
    </g>
  </g>
  <g class="st5">
    <g class="st5">
      <g class="st5">
        <g class="st5">
          <path class="st6" d="M162.5,171.4v-17.2h11.6v2h-9.3v5.3h8.1v2h-8.1v7.8h-2.3Z"/>
          <path class="st6" d="M176,165.2c0-2.3.6-4,1.9-5.1,1.1-.9,2.4-1.4,3.9-1.4s3.1.6,4.2,1.7,1.6,2.7,1.6,4.6-.2,2.9-.7,3.8-1.2,1.6-2.1,2.1-1.9.8-3,.8c-1.7,0-3.2-.6-4.2-1.7s-1.6-2.7-1.6-4.8ZM178.1,165.2c0,1.6.3,2.8,1,3.6s1.6,1.2,2.6,1.2,1.9-.4,2.6-1.2,1-2,1-3.6-.3-2.7-1-3.5-1.6-1.2-2.6-1.2-1.9.4-2.6,1.2-1,2-1,3.6Z"/>
          <path class="st6" d="M190.1,171.4v-12.4h1.9v1.9c.5-.9.9-1.5,1.3-1.7s.9-.4,1.4-.4c.7,0,1.4.2,2.2.7l-.7,2c-.5-.3-1-.5-1.5-.5s-.9.1-1.2.4-.6.7-.8,1.2c-.2.8-.4,1.6-.4,2.5v6.5h-2.1Z"/>
          <path class="st6" d="M198.1,171.4v-12.4h1.9v1.7c.4-.6.9-1.1,1.6-1.5s1.4-.6,2.2-.6,1.7.2,2.3.6,1,.9,1.2,1.6c1-1.5,2.3-2.2,3.8-2.2s2.2.3,2.8,1,1,1.7,1,3.2v8.5h-2.1v-7.8c0-.8,0-1.5-.2-1.8s-.4-.7-.7-.9-.8-.3-1.3-.3c-.9,0-1.6.3-2.2.9s-.9,1.5-.9,2.8v7.2h-2.1v-8.1c0-.9-.2-1.6-.5-2.1s-.9-.7-1.7-.7-1.1.2-1.6.5-.9.8-1.1,1.4-.3,1.5-.3,2.6v6.5h-2.1Z"/>
        </g>
      </g>
    </g>
  </g>
  <path class="st3" d="M-144.9-614.2"/>
</svg>